<mxfile host="app.diagrams.net" agent="Mozilla/5.0 (X11; Ubuntu; Linux x86_64; rv:136.0) Gecko/20100101 Firefox/136.0" version="26.1.1">
  <diagram name="Page-1" id="1XPM7nTgF54vfBkSeFgq">
    <mxGraphModel dx="2970" dy="1056" grid="1" gridSize="10" guides="1" tooltips="1" connect="1" arrows="1" fold="1" page="1" pageScale="1" pageWidth="850" pageHeight="1100" math="0" shadow="0">
      <root>
        <mxCell id="0" />
        <mxCell id="1" parent="0" />
        <mxCell id="UWGzmWyo4zpXQByJ6_1F-6" value="Location Den Helder - Group 7" style="rounded=0;whiteSpace=wrap;html=1;fillColor=none;dashed=1;verticalAlign=bottom;labelPosition=center;verticalLabelPosition=top;align=center;fontStyle=1;fontSize=18;" vertex="1" parent="1">
          <mxGeometry x="155" y="80" width="320" height="310" as="geometry" />
        </mxCell>
        <mxCell id="UWGzmWyo4zpXQByJ6_1F-4" value="" style="edgeStyle=orthogonalEdgeStyle;rounded=0;orthogonalLoop=1;jettySize=auto;html=1;" edge="1" parent="1" source="UWGzmWyo4zpXQByJ6_1F-1" target="UWGzmWyo4zpXQByJ6_1F-3">
          <mxGeometry relative="1" as="geometry" />
        </mxCell>
        <mxCell id="UWGzmWyo4zpXQByJ6_1F-1" value="&lt;div&gt;&lt;b&gt;Argo Workflow&lt;/b&gt;&lt;/div&gt;&lt;div&gt;For Files:&lt;/div&gt;&lt;div&gt;&amp;nbsp; Get File UvA&lt;/div&gt;&lt;div&gt;&amp;nbsp; Else Get File Naavre&lt;/div&gt;&lt;div&gt;&amp;nbsp; If file: sleep 1&lt;/div&gt;&lt;div&gt;&amp;nbsp; Else fail.&lt;/div&gt;" style="rounded=0;whiteSpace=wrap;html=1;align=left;fontSize=18;fillColor=#f5f5f5;fontColor=#333333;strokeColor=#666666;" vertex="1" parent="1">
          <mxGeometry x="220" y="100" width="190" height="140" as="geometry" />
        </mxCell>
        <mxCell id="UWGzmWyo4zpXQByJ6_1F-15" value="Job Event" style="edgeStyle=orthogonalEdgeStyle;rounded=0;orthogonalLoop=1;jettySize=auto;html=1;entryX=0;entryY=0.5;entryDx=0;entryDy=0;fontSize=18;" edge="1" parent="1" source="UWGzmWyo4zpXQByJ6_1F-3" target="UWGzmWyo4zpXQByJ6_1F-14">
          <mxGeometry relative="1" as="geometry" />
        </mxCell>
        <mxCell id="UWGzmWyo4zpXQByJ6_1F-20" value="Get File" style="edgeStyle=orthogonalEdgeStyle;rounded=0;orthogonalLoop=1;jettySize=auto;html=1;exitX=0.5;exitY=1;exitDx=0;exitDy=0;entryX=0.5;entryY=0;entryDx=0;entryDy=0;fontSize=18;startArrow=classic;startFill=1;" edge="1" parent="1" source="UWGzmWyo4zpXQByJ6_1F-3" target="UWGzmWyo4zpXQByJ6_1F-19">
          <mxGeometry relative="1" as="geometry" />
        </mxCell>
        <mxCell id="UWGzmWyo4zpXQByJ6_1F-21" value="Get File" style="edgeStyle=orthogonalEdgeStyle;rounded=0;orthogonalLoop=1;jettySize=auto;html=1;exitX=0.5;exitY=1;exitDx=0;exitDy=0;entryX=0.5;entryY=0;entryDx=0;entryDy=0;fontSize=18;startArrow=classic;startFill=1;" edge="1" parent="1" source="UWGzmWyo4zpXQByJ6_1F-3" target="UWGzmWyo4zpXQByJ6_1F-18">
          <mxGeometry relative="1" as="geometry" />
        </mxCell>
        <mxCell id="UWGzmWyo4zpXQByJ6_1F-3" value="Argo Server" style="rounded=0;whiteSpace=wrap;html=1;fillColor=#d5e8d4;strokeColor=#82b366;fontSize=18;" vertex="1" parent="1">
          <mxGeometry x="220" y="280" width="190" height="60" as="geometry" />
        </mxCell>
        <mxCell id="UWGzmWyo4zpXQByJ6_1F-11" value="Location Frankfurt - AWS" style="rounded=0;whiteSpace=wrap;html=1;fillColor=none;dashed=1;verticalAlign=bottom;labelPosition=center;verticalLabelPosition=top;align=center;fontStyle=1;fontSize=18;" vertex="1" parent="1">
          <mxGeometry x="590" y="240" width="320" height="150" as="geometry" />
        </mxCell>
        <mxCell id="UWGzmWyo4zpXQByJ6_1F-23" value="Copy Files To UvA" style="edgeStyle=orthogonalEdgeStyle;rounded=0;orthogonalLoop=1;jettySize=auto;html=1;exitX=0.5;exitY=1;exitDx=0;exitDy=0;entryX=1;entryY=0.5;entryDx=0;entryDy=0;fontSize=18;" edge="1" parent="1" source="UWGzmWyo4zpXQByJ6_1F-14" target="UWGzmWyo4zpXQByJ6_1F-18">
          <mxGeometry x="-0.4286" relative="1" as="geometry">
            <mxPoint y="1" as="offset" />
          </mxGeometry>
        </mxCell>
        <mxCell id="UWGzmWyo4zpXQByJ6_1F-14" value="Replication Service" style="rounded=0;whiteSpace=wrap;html=1;fillColor=#fff2cc;strokeColor=#d6b656;fontSize=18;" vertex="1" parent="1">
          <mxGeometry x="655" y="280" width="190" height="60" as="geometry" />
        </mxCell>
        <mxCell id="UWGzmWyo4zpXQByJ6_1F-16" value="Location Seville - Naavre" style="rounded=0;whiteSpace=wrap;html=1;fillColor=none;dashed=1;verticalAlign=bottom;labelPosition=center;verticalLabelPosition=top;align=center;fontStyle=1;fontSize=18;" vertex="1" parent="1">
          <mxGeometry x="320" y="475" width="320" height="150" as="geometry" />
        </mxCell>
        <mxCell id="UWGzmWyo4zpXQByJ6_1F-17" value="Location Amsterdam - UvA" style="rounded=0;whiteSpace=wrap;html=1;fillColor=none;dashed=1;verticalAlign=bottom;labelPosition=center;verticalLabelPosition=top;align=center;fontStyle=1;fontSize=18;" vertex="1" parent="1">
          <mxGeometry x="-30" y="475" width="320" height="150" as="geometry" />
        </mxCell>
        <mxCell id="UWGzmWyo4zpXQByJ6_1F-25" value="Copy" style="edgeStyle=orthogonalEdgeStyle;rounded=0;orthogonalLoop=1;jettySize=auto;html=1;exitX=0;exitY=0.5;exitDx=0;exitDy=0;entryX=1;entryY=0.5;entryDx=0;entryDy=0;fontSize=18;" edge="1" parent="1" source="UWGzmWyo4zpXQByJ6_1F-18" target="UWGzmWyo4zpXQByJ6_1F-19">
          <mxGeometry relative="1" as="geometry" />
        </mxCell>
        <mxCell id="UWGzmWyo4zpXQByJ6_1F-18" value="MinIO" style="rounded=0;whiteSpace=wrap;html=1;fillColor=#e1d5e7;strokeColor=#9673a6;fontSize=18;" vertex="1" parent="1">
          <mxGeometry x="385" y="520" width="190" height="60" as="geometry" />
        </mxCell>
        <mxCell id="UWGzmWyo4zpXQByJ6_1F-19" value="MinIO" style="rounded=0;whiteSpace=wrap;html=1;fillColor=#e1d5e7;strokeColor=#9673a6;fontSize=18;" vertex="1" parent="1">
          <mxGeometry x="35" y="520" width="190" height="60" as="geometry" />
        </mxCell>
      </root>
    </mxGraphModel>
  </diagram>
</mxfile>
